<svg xmlns="http://www.w3.org/2000/svg" viewBox="0 0 1024 1024">
  <defs>
    <linearGradient id="bg" x1="120" y1="96" x2="920" y2="928" gradientUnits="userSpaceOnUse">
      <stop offset="0%" stop-color="#1a3b57"/>
      <stop offset="48%" stop-color="#102535"/>
      <stop offset="100%" stop-color="#09131b"/>
    </linearGradient>
    <radialGradient id="glow" cx="32%" cy="24%" r="72%">
      <stop offset="0%" stop-color="#8df4d8" stop-opacity="0.24"/>
      <stop offset="100%" stop-color="#8df4d8" stop-opacity="0"/>
    </radialGradient>
    <linearGradient id="stream" x1="260" y1="214" x2="792" y2="810" gradientUnits="userSpaceOnUse">
      <stop offset="0%" stop-color="#f7f6ee"/>
      <stop offset="30%" stop-color="#dbf8e1"/>
      <stop offset="65%" stop-color="#67e3cf"/>
      <stop offset="100%" stop-color="#149bb3"/>
    </linearGradient>
    <linearGradient id="trail" x1="322" y1="250" x2="748" y2="770" gradientUnits="userSpaceOnUse">
      <stop offset="0%" stop-color="#ffffff"/>
      <stop offset="100%" stop-color="#b6fbff"/>
    </linearGradient>
  </defs>
  <rect width="1024" height="1024" fill="url(#bg)"/>
  <circle cx="326" cy="278" r="388" fill="url(#glow)"/>
  <path
    d="M 280 252 C 450 176, 724 180, 790 330 C 850 468, 726 552, 570 578 C 430 600, 326 658, 336 756 C 346 852, 488 866, 706 770"
    fill="none"
    stroke="url(#stream)"
    stroke-width="196"
    stroke-linecap="round"
    opacity="0.16"
  />
  <path
    d="M 280 252 C 450 176, 724 180, 790 330 C 850 468, 726 552, 570 578 C 430 600, 326 658, 336 756 C 346 852, 488 866, 706 770"
    fill="none"
    stroke="url(#stream)"
    stroke-width="148"
    stroke-linecap="round"
  />
  <path
    d="M 280 252 C 450 176, 724 180, 790 330 C 850 468, 726 552, 570 578 C 430 600, 326 658, 336 756 C 346 852, 488 866, 706 770"
    fill="none"
    stroke="url(#trail)"
    stroke-width="34"
    stroke-linecap="round"
    opacity="0.94"
  />
  <path
    d="M 388 284 C 542 240, 680 250, 728 338"
    fill="none"
    stroke="#d7fff4"
    stroke-width="48"
    stroke-linecap="round"
    opacity="0.82"
  />
  <path
    d="M 452 666 C 446 738, 538 770, 682 730"
    fill="none"
    stroke="#5ee2d4"
    stroke-width="44"
    stroke-linecap="round"
    opacity="0.82"
  />
</svg>
